<svg preserveAspectRatio="xMidYMid meet" data-bbox="47.501 61 105 77.999" viewBox="47.501 61 105 77.999" height="200" width="200" xmlns="http://www.w3.org/2000/svg" data-type="color" role="img" aria-labelledby="svgcid-m1z2cc2fxx91"><defs><style>#comp-j7k70pz6 svg [data-color="1"] {fill: #000000;}</style></defs><title id="svgcid-m1z2cc2fxx91"></title>
    <g>
        <path d="M125.814 69.454l-52.14-.62c-1.006-.057-1.878.352-2.565 1.029a3.544 3.544 0 0 0-1.066 2.544v29.782c0 2.286 1.868 4.145 4.163 4.145h51.587c2.296 0 4.163-1.859 4.163-4.145v-28.59a4.152 4.152 0 0 0-4.142-4.145zm.647 32.735a.666.666 0 0 1-.667.664H74.207a.666.666 0 0 1-.667-.664l.092-29.874 52.162.62c.369 0 .667.298.667.664v28.59z" fill="#000000" data-color="1"></path>
        <path d="M151.3 128.32l-8.247-11.972a14.406 14.406 0 0 0-5.425-4.09c1.182-1.335 1.924-3.067 1.924-4.984V68.571c0-4.175-3.411-7.571-7.607-7.571H68.056c-4.196 0-7.607 3.396-7.607 7.571v38.702c0 1.92.743 3.654 1.929 4.99a14.742 14.742 0 0 0-5.527 4.21l-8.15 11.846a6.79 6.79 0 0 0-.408 7.038 6.844 6.844 0 0 0 6.063 3.642h91.289c2.55 0 4.871-1.393 6.061-3.639s1.033-4.943-.406-7.04zm-83.244-17.28a3.776 3.776 0 0 1-3.782-3.766V68.571c0-2.075 1.696-3.763 3.782-3.763h63.888c2.087 0 3.782 1.688 3.782 3.763v38.702c0 2.078-1.696 3.766-3.782 3.766H68.056zm80.266 22.543a2.979 2.979 0 0 1-2.677 1.609H54.356a2.986 2.986 0 0 1-2.679-1.609 2.958 2.958 0 0 1 .182-3.111l8.053-11.719a10.627 10.627 0 0 1 8.257-3.905h63.664c3.217 0 6.225 1.423 8.16 3.778l8.15 11.846c.647.939.714 2.104.179 3.111z" fill="#000000" data-color="1"></path>
        <path d="M120.597 126.299H79.403a1.908 1.908 0 0 0-1.912 1.904c0 1.051.857 1.904 1.912 1.904h41.193a1.908 1.908 0 0 0 1.912-1.904 1.907 1.907 0 0 0-1.911-1.904z" fill="#000000" data-color="1"></path>
    </g>
</svg>