<svg preserveAspectRatio="xMidYMid meet" data-bbox="44.997 45 110.002 110" viewBox="44.997 45 110.002 110" height="200" width="200" xmlns="http://www.w3.org/2000/svg" data-type="color" role="img" aria-labelledby="svgcid--glw2y61fdl5j"><defs><style>#comp-j7k7339k svg [data-color="1"] {fill: #111111;}</style></defs><title id="svgcid--glw2y61fdl5j"></title>
    <g>
        <path d="M151.453 59.057a2.233 2.233 0 0 0-2.007.61l-11.544 11.545-7.189-1.926-1.926-7.189 11.544-11.545a2.225 2.225 0 0 0-.721-3.63c-9.372-3.888-20.06-1.772-27.23 5.396-7.56 7.56-9.244 18.801-5.06 28.005l-57.714 50.875a13.466 13.466 0 0 0-4.6 9.773 13.47 13.47 0 0 0 3.976 10.045c2.579 2.578 5.972 3.984 9.599 3.984a13.473 13.473 0 0 0 10.219-4.608l50.824-57.736a25.028 25.028 0 0 0 10.405 2.262c6.392 0 12.784-2.433 17.65-7.299 7.17-7.17 9.288-17.859 5.396-27.231a2.222 2.222 0 0 0-1.622-1.331zm-85.991 88.392a9.056 9.056 0 0 1-6.575 3.094c-2.573.103-4.951-.868-6.755-2.674a9.06 9.06 0 0 1-2.675-6.757 9.064 9.064 0 0 1 3.094-6.575l57.027-50.27a24.937 24.937 0 0 0 2.803 3.351 24.986 24.986 0 0 0 3.308 2.773l-50.227 57.058zm79.071-62.978c-7.998 7.996-21.007 7.996-29.005 0-7.996-7.996-7.996-21.008.001-29.005a20.443 20.443 0 0 1 19.083-5.488l-9.88 9.88a2.224 2.224 0 0 0-.576 2.149l2.591 9.671a2.227 2.227 0 0 0 1.574 1.575l9.671 2.591a2.218 2.218 0 0 0 2.15-.577l9.88-9.88a20.445 20.445 0 0 1-5.489 19.084z" fill="#000000" data-color="1"></path>
    </g>
</svg>