<svg preserveAspectRatio="none" data-bbox="33 20 134.001 160" viewBox="33 20 134.001 160" height="200" width="200" xmlns="http://www.w3.org/2000/svg" data-type="shape" role="img" aria-labelledby="svgcid-tgfnp8-slpmgu"><title id="svgcid-tgfnp8-slpmgu"></title>
    <g>
        <path d="M151.586 26.4c4.626.133 8.463 3.634 9.035 8.241v131.676c0 4.28-4.769 7.281-9.035 7.281H45.855c-4.266 0-6.437-3.002-6.437-7.281V34.641c.48-4.566 4.238-8.081 8.812-8.241h102.823m.533-6.4H48.23c-8.102.141-14.726 6.525-15.191 14.641v131.676c-.541 6.993 4.671 13.102 11.642 13.645.391.03.783.043 1.175.037h105.731c7.796 0 15.414-5.86 15.414-13.681V34.641c-.571-8.155-7.267-14.516-15.415-14.641z"></path>
        <path d="M131.915 119.199v6.4H71.313v-6.4h60.602z"></path>
        <path d="M131.915 80.799v6.4H71.313v-6.4h60.602z"></path>
        <path d="M131.915 99.999v6.4H71.313v-6.4h60.602z"></path>
        <path d="M147.863 36a3.198 3.198 0 0 1 3.189 3.199v121.6a3.197 3.197 0 0 1-3.189 3.199H52.175a3.198 3.198 0 0 1-3.189-3.199v-121.6A3.197 3.197 0 0 1 52.175 36h95.688m0-3.2H52.175c-3.523 0-6.378 2.865-6.378 6.399v121.6c0 3.534 2.856 6.399 6.378 6.399h95.688c3.523 0 6.378-2.865 6.378-6.399v-121.6c.001-3.534-2.855-6.399-6.378-6.399z"></path>
    </g>
</svg>